<svg width="1080" height="1080" viewBox="0 0 1080 1080" fill="none" xmlns="http://www.w3.org/2000/svg">
<g filter="url(#filter0_d_1174_25)">
<path d="M142.162 592.736C134.006 592.736 126.728 591.667 120.328 589.528C114.054 587.264 109.098 583.994 105.459 579.717C101.82 575.44 100 570.22 100 564.057C100 563.553 100 562.987 100 562.358C100 561.73 100.063 560.975 100.188 560.094H121.834V561.604C121.834 566.132 123.716 569.654 127.481 572.17C131.371 574.56 137.08 575.755 144.609 575.755C151.636 575.755 156.781 574.686 160.044 572.547C163.432 570.409 165.126 567.642 165.126 564.245C165.126 561.855 164.373 559.906 162.867 558.396C161.487 556.887 158.726 555.629 154.585 554.623C150.57 553.491 144.484 552.296 136.327 551.038C128.171 549.78 121.52 548.019 116.376 545.755C111.356 543.491 107.654 540.472 105.27 536.698C102.886 532.925 101.694 528.145 101.694 522.358C101.694 515.566 103.514 509.969 107.153 505.566C110.917 501.164 115.999 497.893 122.399 495.755C128.924 493.616 136.39 492.547 144.797 492.547C152.201 492.547 158.914 493.616 164.937 495.755C170.961 497.767 175.792 500.723 179.431 504.623C183.07 508.396 184.889 513.05 184.889 518.585C184.889 518.962 184.889 519.465 184.889 520.094C184.889 520.723 184.764 521.478 184.513 522.358H162.679C162.679 518.962 161.863 516.321 160.232 514.434C158.601 512.421 156.342 511.038 153.456 510.283C150.57 509.528 147.182 509.151 143.292 509.151C130.994 509.151 124.846 512.673 124.846 519.717C124.846 521.855 125.536 523.553 126.916 524.811C128.296 526.069 130.869 527.201 134.633 528.208C138.398 529.214 143.982 530.346 151.385 531.604C160.295 532.987 167.447 534.874 172.843 537.264C178.364 539.528 182.317 542.61 184.701 546.509C187.211 550.283 188.466 555.252 188.466 561.415C188.466 568.836 186.583 574.874 182.819 579.528C179.054 584.057 173.721 587.39 166.82 589.528C159.918 591.667 151.699 592.736 142.162 592.736Z" fill="#00FECC"/>
<path d="M273.281 624.811V581.792C270.772 584.937 267.321 587.579 262.929 589.717C258.537 591.73 253.204 592.736 246.93 592.736C239.526 592.736 232.939 590.975 227.166 587.453C221.52 583.805 217.065 578.459 213.802 571.415C210.54 564.371 208.909 555.503 208.909 544.811V542.736C208.909 531.541 210.665 522.233 214.179 514.811C217.692 507.39 222.398 501.855 228.296 498.208C234.319 494.434 240.907 492.547 248.059 492.547C255.086 492.547 260.921 493.931 265.564 496.698C270.207 499.34 273.721 502.547 276.105 506.321L278.175 494.434H299.068V624.811H273.281ZM254.082 575.566C257.596 575.566 260.796 574.686 263.682 572.925C266.693 571.164 269.015 568.522 270.646 565C272.403 561.352 273.281 556.887 273.281 551.604V534.811C273.281 528.648 272.403 523.742 270.646 520.094C269.015 516.447 266.693 513.805 263.682 512.17C260.796 510.535 257.596 509.717 254.082 509.717C250.569 509.717 247.306 510.597 244.295 512.358C241.409 513.994 239.087 516.698 237.33 520.472C235.699 524.119 234.884 528.899 234.884 534.811V551.604C234.884 556.887 235.699 561.352 237.33 565C239.087 568.522 241.409 571.164 244.295 572.925C247.306 574.686 250.569 575.566 254.082 575.566Z" fill="#00FECC"/>
<path d="M367.885 592.736C359.728 592.736 352.45 591.667 346.051 589.528C339.777 587.264 334.82 583.994 331.181 579.717C327.542 575.44 325.722 570.22 325.722 564.057C325.722 563.553 325.722 562.987 325.722 562.358C325.722 561.73 325.785 560.975 325.911 560.094H347.557V561.604C347.557 566.132 349.439 569.654 353.203 572.17C357.093 574.56 362.803 575.755 370.332 575.755C377.359 575.755 382.504 574.686 385.766 572.547C389.154 570.409 390.848 567.642 390.848 564.245C390.848 561.855 390.095 559.906 388.589 558.396C387.209 556.887 384.449 555.629 380.308 554.623C376.292 553.491 370.206 552.296 362.05 551.038C353.893 549.78 347.243 548.019 342.098 545.755C337.079 543.491 333.377 540.472 330.993 536.698C328.609 532.925 327.416 528.145 327.416 522.358C327.416 515.566 329.236 509.969 332.875 505.566C336.639 501.164 341.722 497.893 348.121 495.755C354.646 493.616 362.113 492.547 370.52 492.547C377.923 492.547 384.637 493.616 390.66 495.755C396.683 497.767 401.514 500.723 405.153 504.623C408.792 508.396 410.612 513.05 410.612 518.585C410.612 518.962 410.612 519.465 410.612 520.094C410.612 520.723 410.486 521.478 410.235 522.358H388.401C388.401 518.962 387.586 516.321 385.954 514.434C384.323 512.421 382.064 511.038 379.178 510.283C376.292 509.528 372.904 509.151 369.014 509.151C356.717 509.151 350.568 512.673 350.568 519.717C350.568 521.855 351.258 523.553 352.639 524.811C354.019 526.069 356.591 527.201 360.356 528.208C364.12 529.214 369.704 530.346 377.108 531.604C386.017 532.987 393.17 534.874 398.565 537.264C404.087 539.528 408.039 542.61 410.424 546.509C412.933 550.283 414.188 555.252 414.188 561.415C414.188 568.836 412.306 574.874 408.541 579.528C404.777 584.057 399.444 587.39 392.542 589.528C385.641 591.667 377.421 592.736 367.885 592.736Z" fill="#00FECC"/>
<path d="M440.842 625V494.434H461.735L464.182 506.321C466.817 502.044 470.519 498.711 475.287 496.321C480.181 493.805 486.205 492.547 493.357 492.547C500.635 492.547 507.097 494.308 512.744 497.83C518.516 501.226 522.971 506.509 526.108 513.679C529.371 520.849 531.002 530.157 531.002 541.604V543.868C531.002 554.56 529.245 563.553 525.732 570.849C522.218 578.019 517.513 583.491 511.615 587.264C505.717 590.912 499.129 592.736 491.851 592.736C485.954 592.736 480.809 591.73 476.417 589.717C472.15 587.579 468.888 585.126 466.629 582.358V625H440.842ZM485.828 575.566C491.349 575.566 495.929 573.553 499.568 569.528C503.207 565.503 505.027 559.403 505.027 551.226V534.245C505.027 528.333 504.149 523.616 502.392 520.094C500.761 516.447 498.502 513.805 495.616 512.17C492.73 510.535 489.467 509.717 485.828 509.717C482.565 509.717 479.428 510.535 476.417 512.17C473.531 513.679 471.147 516.258 469.264 519.906C467.508 523.428 466.629 528.208 466.629 534.245V551.226C466.629 559.403 468.449 565.503 472.088 569.528C475.727 573.553 480.307 575.566 485.828 575.566Z" fill="#00FECC"/>
<path d="M553.139 590.849V455H578.926V506.698C582.188 502.044 586.204 498.522 590.972 496.132C595.866 493.742 601.262 492.547 607.159 492.547C613.308 492.547 618.767 493.805 623.535 496.321C628.429 498.836 632.193 502.547 634.828 507.453C637.589 512.233 638.969 518.145 638.969 525.189V590.849H613.183V530.283C613.183 524.119 611.677 519.465 608.665 516.321C605.779 513.176 601.764 511.604 596.619 511.604C593.231 511.604 590.156 512.421 587.396 514.057C584.761 515.566 582.69 517.767 581.184 520.66C579.679 523.428 578.926 526.635 578.926 530.283V590.849H553.139Z" fill="#00FECC"/>
<path d="M708.915 592.736C698.124 592.736 689.215 590.786 682.187 586.887C675.16 582.987 669.953 577.453 666.565 570.283C663.302 563.113 661.671 554.686 661.671 545V540.283C661.671 530.346 663.616 521.855 667.506 514.811C671.396 507.642 676.917 502.17 684.07 498.396C691.348 494.497 699.943 492.547 709.856 492.547C719.017 492.547 726.859 494.308 733.385 497.83C740.035 501.226 745.18 506.069 748.819 512.358C752.458 518.522 754.278 525.755 754.278 534.057V547.264H688.775V551.792C688.775 559.717 690.72 565.692 694.61 569.717C698.626 573.742 703.645 575.755 709.668 575.755C716.444 575.755 721.526 574.119 724.914 570.849C728.428 567.579 730.185 562.547 730.185 555.755H754.278C754.278 563.428 752.395 570.031 748.631 575.566C744.866 581.101 739.596 585.377 732.82 588.396C726.169 591.289 718.201 592.736 708.915 592.736ZM688.964 532.547H729.055V529.906C729.055 525.88 728.24 522.358 726.608 519.34C724.977 516.321 722.656 513.931 719.644 512.17C716.633 510.283 713.182 509.34 709.292 509.34C705.025 509.34 701.386 510.409 698.375 512.547C695.363 514.56 693.042 517.264 691.41 520.66C689.779 523.931 688.964 527.39 688.964 531.038V532.547Z" fill="#00FECC"/>
<path d="M795.237 590.849V513.679H773.779V494.434H816.13L817.447 507.264C819.455 502.862 822.718 499.34 827.235 496.698C831.753 493.931 837.211 492.547 843.611 492.547C852.645 492.547 859.61 495.189 864.504 500.472C869.397 505.629 871.844 512.421 871.844 520.849C871.844 522.61 871.782 524.371 871.656 526.132C871.656 527.893 871.531 529.717 871.28 531.604H849.822V526.887C849.822 524.245 849.257 521.792 848.128 519.528C846.999 517.264 845.367 515.44 843.234 514.057C841.101 512.547 838.403 511.792 835.141 511.792C832.003 511.792 829.306 512.673 827.047 514.434C824.914 516.195 823.282 518.459 822.153 521.226C821.024 523.994 820.459 526.95 820.459 530.094V590.849H795.237ZM773.215 590.849V571.981H859.045V590.849H773.215Z" fill="#00FECC"/>
<path d="M934.638 592.736C923.846 592.736 914.937 590.786 907.91 586.887C900.883 582.987 895.675 577.453 892.287 570.283C889.025 563.113 887.393 554.686 887.393 545V540.283C887.393 530.346 889.338 521.855 893.228 514.811C897.118 507.642 902.64 502.17 909.792 498.396C917.07 494.497 925.666 492.547 935.579 492.547C944.739 492.547 952.582 494.308 959.107 497.83C965.758 501.226 970.902 506.069 974.541 512.358C978.18 518.522 980 525.755 980 534.057V547.264H914.498V551.792C914.498 559.717 916.443 565.692 920.333 569.717C924.348 573.742 929.368 575.755 935.391 575.755C942.167 575.755 947.249 574.119 950.637 570.849C954.15 567.579 955.907 562.547 955.907 555.755H980C980 563.428 978.118 570.031 974.353 575.566C970.589 581.101 965.318 585.377 958.542 588.396C951.892 591.289 943.924 592.736 934.638 592.736ZM914.686 532.547H954.778V529.906C954.778 525.88 953.962 522.358 952.331 519.34C950.7 516.321 948.378 513.931 945.367 512.17C942.355 510.283 938.904 509.34 935.014 509.34C930.748 509.34 927.109 510.409 924.097 512.547C921.086 514.56 918.764 517.264 917.133 520.66C915.502 523.931 914.686 527.39 914.686 531.038V532.547Z" fill="#00FECC"/>
</g>
<g filter="url(#filter1_d_1174_25)">
<path d="M315 682.5C309.8 682.5 304.8 681.95 300 680.85C295.3 679.75 291.15 678 287.55 675.6C283.95 673.1 281.1 669.9 279 666C276.9 662.1 275.85 657.35 275.85 651.75C275.85 651.35 275.85 650.9 275.85 650.4C275.85 649.8 275.9 649.25 276 648.75H290.85C290.75 649.35 290.7 649.9 290.7 650.4C290.7 650.9 290.7 651.45 290.7 652.05C290.7 656.15 291.7 659.5 293.7 662.1C295.7 664.7 298.5 666.6 302.1 667.8C305.7 669 309.9 669.6 314.7 669.6C319.5 669.6 323.65 669.1 327.15 668.1C330.65 667 333.35 665.2 335.25 662.7C337.25 660.2 338.25 656.9 338.25 652.8C338.25 649.1 337.15 646.15 334.95 643.95C332.75 641.75 329.85 640 326.25 638.7C322.75 637.3 318.85 636.05 314.55 634.95C310.35 633.85 306.1 632.65 301.8 631.35C297.6 630.05 293.7 628.35 290.1 626.25C286.6 624.15 283.75 621.35 281.55 617.85C279.35 614.25 278.25 609.7 278.25 604.2C278.25 597.9 279.95 592.7 283.35 588.6C286.75 584.5 291.25 581.5 296.85 579.6C302.45 577.6 308.6 576.6 315.3 576.6C322 576.6 328.1 577.6 333.6 579.6C339.1 581.5 343.45 584.55 346.65 588.75C349.95 592.85 351.6 598.3 351.6 605.1V607.05H337.05V604.65C337.05 601.25 336.1 598.4 334.2 596.1C332.4 593.7 329.85 591.9 326.55 590.7C323.35 589.5 319.6 588.9 315.3 588.9C311.3 588.9 307.7 589.4 304.5 590.4C301.3 591.4 298.75 592.95 296.85 595.05C295.05 597.15 294.15 599.9 294.15 603.3C294.15 606.8 295.2 609.6 297.3 611.7C299.5 613.8 302.35 615.5 305.85 616.8C309.45 618 313.4 619.1 317.7 620.1C322 621.1 326.25 622.25 330.45 623.55C334.75 624.85 338.65 626.55 342.15 628.65C345.75 630.75 348.65 633.6 350.85 637.2C353.15 640.7 354.3 645.2 354.3 650.7C354.3 658.4 352.55 664.6 349.05 669.3C345.65 673.9 340.95 677.25 334.95 679.35C329.05 681.45 322.4 682.5 315 682.5ZM372.991 681V578.1H440.191L438.091 590.85H388.741V622.2H433.441V634.65H388.741V667.95H438.991L441.091 681H372.991ZM451.833 681L485.283 578.1H504.333L537.933 681H521.733L494.583 593.55H493.983L467.433 681H451.833ZM468.633 657.9V645.75H520.533V657.9H468.633ZM621.724 681.75C619.224 681.75 616.824 681.25 614.524 680.25C612.224 679.25 610.374 677.35 608.974 674.55C607.574 671.75 606.874 667.7 606.874 662.4C606.874 657.4 606.324 653.3 605.224 650.1C604.124 646.9 602.674 644.4 600.874 642.6C599.174 640.7 597.324 639.35 595.324 638.55C593.324 637.75 591.374 637.35 589.474 637.35H566.524V681H550.924V578.1H595.624C601.024 578.1 605.874 579.2 610.174 581.4C614.574 583.6 618.024 586.7 620.524 590.7C623.124 594.7 624.424 599.45 624.424 604.95C624.424 611.25 622.774 616.75 619.474 621.45C616.174 626.05 611.824 628.9 606.424 630V630.75C610.024 631.75 612.974 633.5 615.274 636C617.674 638.5 619.474 641.6 620.674 645.3C621.874 648.9 622.474 652.8 622.474 657C622.474 663.8 623.024 668.55 624.124 671.25C625.224 673.95 627.224 675.7 630.124 676.5V680.4C629.124 680.9 627.874 681.25 626.374 681.45C624.974 681.65 623.424 681.75 621.724 681.75ZM566.524 624.75H591.274C596.974 624.75 601.324 623.1 604.324 619.8C607.424 616.4 608.974 612.15 608.974 607.05C608.974 601.95 607.474 597.95 604.474 595.05C601.574 592.15 597.474 590.7 592.174 590.7H566.524V624.75ZM673.866 682.5C668.366 682.5 663.266 681.7 658.566 680.1C653.966 678.5 649.916 675.95 646.416 672.45C642.916 668.85 640.166 664.1 638.166 658.2C636.266 652.3 635.316 645.05 635.316 636.45V622.65C635.316 614.05 636.316 606.8 638.316 600.9C640.316 595 643.066 590.3 646.566 586.8C650.066 583.2 654.116 580.6 658.716 579C663.416 577.4 668.416 576.6 673.716 576.6H675.816C683.616 576.6 690.266 578.1 695.766 581.1C701.366 584.1 705.616 588.65 708.516 594.75C711.416 600.75 712.866 608.3 712.866 617.4H697.716C697.716 610.8 696.966 605.45 695.466 601.35C694.066 597.15 691.666 594.1 688.266 592.2C684.866 590.2 680.316 589.2 674.616 589.2C671.316 589.2 668.266 589.7 665.466 590.7C662.766 591.6 660.366 593.2 658.266 595.5C656.166 597.7 654.516 600.75 653.316 604.65C652.116 608.55 651.516 613.45 651.516 619.35V639.6C651.516 645.5 652.116 650.45 653.316 654.45C654.516 658.35 656.166 661.45 658.266 663.75C660.366 665.95 662.766 667.55 665.466 668.55C668.266 669.45 671.316 669.9 674.616 669.9C683.216 669.9 689.266 667.7 692.766 663.3C696.366 658.8 698.166 651.65 698.166 641.85H712.866C712.866 650.65 711.416 658.05 708.516 664.05C705.616 670.05 701.416 674.65 695.916 677.85C690.416 680.95 683.766 682.5 675.966 682.5H673.866ZM730.807 681V578.1H746.107V621.9H783.307V578.1H798.757V681H783.307V634.95H746.107V681H730.807Z" fill="#00FECC"/>
</g>
<defs>
<filter id="filter0_d_1174_25" x="100" y="435" width="900" height="190" filterUnits="userSpaceOnUse" color-interpolation-filters="sRGB">
<feFlood flood-opacity="0" result="BackgroundImageFix"/>
<feColorMatrix in="SourceAlpha" type="matrix" values="0 0 0 0 0 0 0 0 0 0 0 0 0 0 0 0 0 0 127 0" result="hardAlpha"/>
<feOffset dx="10" dy="-10"/>
<feGaussianBlur stdDeviation="5"/>
<feComposite in2="hardAlpha" operator="out"/>
<feColorMatrix type="matrix" values="0 0 0 0 0.513726 0 0 0 0 0 0 0 0 0 0.513726 0 0 0 1 0"/>
<feBlend mode="normal" in2="BackgroundImageFix" result="effect1_dropShadow_1174_25"/>
<feBlend mode="normal" in="SourceGraphic" in2="effect1_dropShadow_1174_25" result="shape"/>
</filter>
<filter id="filter1_d_1174_25" x="275.85" y="556.6" width="542.907" height="125.9" filterUnits="userSpaceOnUse" color-interpolation-filters="sRGB">
<feFlood flood-opacity="0" result="BackgroundImageFix"/>
<feColorMatrix in="SourceAlpha" type="matrix" values="0 0 0 0 0 0 0 0 0 0 0 0 0 0 0 0 0 0 127 0" result="hardAlpha"/>
<feOffset dx="10" dy="-10"/>
<feGaussianBlur stdDeviation="5"/>
<feComposite in2="hardAlpha" operator="out"/>
<feColorMatrix type="matrix" values="0 0 0 0 0.513726 0 0 0 0 0 0 0 0 0 0.513726 0 0 0 1 0"/>
<feBlend mode="normal" in2="BackgroundImageFix" result="effect1_dropShadow_1174_25"/>
<feBlend mode="normal" in="SourceGraphic" in2="effect1_dropShadow_1174_25" result="shape"/>
</filter>
</defs>
</svg>
