<svg width="2003" height="357" viewBox="0 0 2003 357" fill="none" xmlns="http://www.w3.org/2000/svg">
<g filter="url(#filter0_d_1172_22)">
<path d="M86.7 285C73.7 285 62.1 283.3 51.9 279.9C41.9 276.3 34 271.1 28.2 264.3C22.4 257.5 19.5 249.2 19.5 239.4C19.5 238.6 19.5 237.7 19.5 236.7C19.5 235.7 19.6 234.5 19.8 233.1H54.3V235.5C54.3 242.7 57.3 248.3 63.3 252.3C69.5 256.1 78.6 258 90.6 258C101.8 258 110 256.3 115.2 252.9C120.6 249.5 123.3 245.1 123.3 239.7C123.3 235.9 122.1 232.8 119.7 230.4C117.5 228 113.1 226 106.5 224.4C100.1 222.6 90.4 220.7 77.4 218.7C64.4 216.7 53.8 213.9 45.6 210.3C37.6 206.7 31.7 201.9 27.9 195.9C24.1 189.9 22.2 182.3 22.2 173.1C22.2 162.3 25.1 153.4 30.9 146.4C36.9 139.4 45 134.2 55.2 130.8C65.6 127.4 77.5 125.7 90.9 125.7C102.7 125.7 113.4 127.4 123 130.8C132.6 134 140.3 138.7 146.1 144.9C151.9 150.9 154.8 158.3 154.8 167.1C154.8 167.7 154.8 168.5 154.8 169.5C154.8 170.5 154.6 171.7 154.2 173.1H119.4C119.4 167.7 118.1 163.5 115.5 160.5C112.9 157.3 109.3 155.1 104.7 153.9C100.1 152.7 94.7 152.1 88.5 152.1C68.9 152.1 59.1 157.7 59.1 168.9C59.1 172.3 60.2 175 62.4 177C64.6 179 68.7 180.8 74.7 182.4C80.7 184 89.6 185.8 101.4 187.8C115.6 190 127 193 135.6 196.8C144.4 200.4 150.7 205.3 154.5 211.5C158.5 217.5 160.5 225.4 160.5 235.2C160.5 247 157.5 256.6 151.5 264C145.5 271.2 137 276.5 126 279.9C115 283.3 101.9 285 86.7 285ZM270.483 285C253.283 285 239.083 281.9 227.883 275.7C216.683 269.5 208.383 260.7 202.983 249.3C197.783 237.9 195.183 224.5 195.183 209.1V201.6C195.183 185.8 198.283 172.3 204.483 161.1C210.683 149.7 219.483 141 230.883 135C242.483 128.8 256.183 125.7 271.983 125.7C286.583 125.7 299.083 128.5 309.483 134.1C320.083 139.5 328.283 147.2 334.083 157.2C339.883 167 342.783 178.5 342.783 191.7V212.7H238.383V219.9C238.383 232.5 241.483 242 247.683 248.4C254.083 254.8 262.083 258 271.683 258C282.483 258 290.583 255.4 295.983 250.2C301.583 245 304.383 237 304.383 226.2H342.783C342.783 238.4 339.783 248.9 333.783 257.7C327.783 266.5 319.383 273.3 308.583 278.1C297.983 282.7 285.283 285 270.483 285ZM238.683 189.3H302.583V185.1C302.583 178.7 301.283 173.1 298.683 168.3C296.083 163.5 292.383 159.7 287.583 156.9C282.783 153.9 277.283 152.4 271.083 152.4C264.283 152.4 258.483 154.1 253.683 157.5C248.883 160.7 245.183 165 242.583 170.4C239.983 175.6 238.683 181.1 238.683 186.9V189.3ZM475.566 336V267.6C471.566 272.6 466.066 276.8 459.066 280.2C452.066 283.4 443.566 285 433.566 285C421.766 285 411.266 282.2 402.066 276.6C393.066 270.8 385.966 262.3 380.766 251.1C375.566 239.9 372.966 225.8 372.966 208.8V205.5C372.966 187.7 375.766 172.9 381.366 161.1C386.966 149.3 394.466 140.5 403.866 134.7C413.466 128.7 423.966 125.7 435.366 125.7C446.566 125.7 455.866 127.9 463.266 132.3C470.666 136.5 476.266 141.6 480.066 147.6L483.366 128.7H516.666V336H475.566ZM444.966 257.7C450.566 257.7 455.666 256.3 460.266 253.5C465.066 250.7 468.766 246.5 471.366 240.9C474.166 235.1 475.566 228 475.566 219.6V192.9C475.566 183.1 474.166 175.3 471.366 169.5C468.766 163.7 465.066 159.5 460.266 156.9C455.666 154.3 450.566 153 444.966 153C439.366 153 434.166 154.4 429.366 157.2C424.766 159.8 421.066 164.1 418.266 170.1C415.666 175.9 414.366 183.5 414.366 192.9V219.6C414.366 228 415.666 235.1 418.266 240.9C421.066 246.5 424.766 250.7 429.366 253.5C434.166 256.3 439.366 257.7 444.966 257.7ZM587.648 337.8C582.648 337.8 578.048 337.4 573.848 336.6C569.648 336 565.848 335 562.448 333.6V305.1C564.648 306.1 567.648 307 571.448 307.8C575.248 308.8 578.948 309.3 582.548 309.3C588.348 309.3 592.748 308 595.748 305.4C598.948 303 601.548 299.5 603.548 294.9C605.748 290.3 608.048 284.8 610.448 278.4L551.948 128.7H596.048L631.448 229.2H633.248L666.848 128.7H707.348L651.848 274.2C647.448 286 642.348 296.7 636.548 306.3C630.948 315.9 624.148 323.5 616.148 329.1C608.348 334.9 598.848 337.8 587.648 337.8ZM792.131 285C775.931 285 762.931 280.5 753.131 271.5C743.531 262.5 738.731 249.1 738.731 231.3V128.7H779.831V224.4C779.831 234.6 782.231 242.2 787.031 247.2C792.031 252.2 798.631 254.7 806.831 254.7C812.431 254.7 817.331 253.4 821.531 250.8C825.931 248.2 829.331 244.5 831.731 239.7C834.331 234.9 835.631 229.5 835.631 223.5V128.7H876.431V249C876.431 252.2 877.131 254.5 878.531 255.9C879.931 257.1 881.731 257.7 883.931 257.7C885.731 257.7 887.431 257.6 889.031 257.4C890.631 257 892.331 256.2 894.131 255V279.3C891.531 281.1 887.831 282.5 883.031 283.5C878.431 284.5 873.931 285 869.531 285C861.731 285 855.731 284 851.531 282C847.531 280.2 844.731 277.7 843.131 274.5C841.531 271.1 840.431 267.2 839.831 262.8C837.031 267.2 833.531 271.1 829.331 274.5C825.131 277.7 819.931 280.2 813.731 282C807.731 284 800.531 285 792.131 285ZM986.114 285C973.114 285 961.514 283.3 951.314 279.9C941.314 276.3 933.414 271.1 927.614 264.3C921.814 257.5 918.914 249.2 918.914 239.4C918.914 238.6 918.914 237.7 918.914 236.7C918.914 235.7 919.014 234.5 919.214 233.1H953.714V235.5C953.714 242.7 956.714 248.3 962.714 252.3C968.914 256.1 978.014 258 990.014 258C1001.21 258 1009.41 256.3 1014.61 252.9C1020.01 249.5 1022.71 245.1 1022.71 239.7C1022.71 235.9 1021.51 232.8 1019.11 230.4C1016.91 228 1012.51 226 1005.91 224.4C999.514 222.6 989.814 220.7 976.814 218.7C963.814 216.7 953.214 213.9 945.014 210.3C937.014 206.7 931.114 201.9 927.314 195.9C923.514 189.9 921.614 182.3 921.614 173.1C921.614 162.3 924.514 153.4 930.314 146.4C936.314 139.4 944.414 134.2 954.614 130.8C965.014 127.4 976.914 125.7 990.314 125.7C1002.11 125.7 1012.81 127.4 1022.41 130.8C1032.01 134 1039.71 138.7 1045.51 144.9C1051.31 150.9 1054.21 158.3 1054.21 167.1C1054.21 167.7 1054.21 168.5 1054.21 169.5C1054.21 170.5 1054.01 171.7 1053.61 173.1H1018.81C1018.81 167.7 1017.51 163.5 1014.91 160.5C1012.31 157.3 1008.71 155.1 1004.11 153.9C999.514 152.7 994.114 152.1 987.914 152.1C968.314 152.1 958.514 157.7 958.514 168.9C958.514 172.3 959.614 175 961.814 177C964.014 179 968.114 180.8 974.114 182.4C980.114 184 989.014 185.8 1000.81 187.8C1015.01 190 1026.41 193 1035.01 196.8C1043.81 200.4 1050.11 205.3 1053.91 211.5C1057.91 217.5 1059.91 225.4 1059.91 235.2C1059.91 247 1056.91 256.6 1050.91 264C1044.91 271.2 1036.41 276.5 1025.41 279.9C1014.41 283.3 1001.31 285 986.114 285ZM1102.4 336.3V128.7H1135.7L1139.6 147.6C1143.8 140.8 1149.7 135.5 1157.3 131.7C1165.1 127.7 1174.7 125.7 1186.1 125.7C1197.7 125.7 1208 128.5 1217 134.1C1226.2 139.5 1233.3 147.9 1238.3 159.3C1243.5 170.7 1246.1 185.5 1246.1 203.7V207.3C1246.1 224.3 1243.3 238.6 1237.7 250.2C1232.1 261.6 1224.6 270.3 1215.2 276.3C1205.8 282.1 1195.3 285 1183.7 285C1174.3 285 1166.1 283.4 1159.1 280.2C1152.3 276.8 1147.1 272.9 1143.5 268.5V336.3H1102.4ZM1174.1 257.7C1182.9 257.7 1190.2 254.5 1196 248.1C1201.8 241.7 1204.7 232 1204.7 219V192C1204.7 182.6 1203.3 175.1 1200.5 169.5C1197.9 163.7 1194.3 159.5 1189.7 156.9C1185.1 154.3 1179.9 153 1174.1 153C1168.9 153 1163.9 154.3 1159.1 156.9C1154.5 159.3 1150.7 163.4 1147.7 169.2C1144.9 174.8 1143.5 182.4 1143.5 192V219C1143.5 232 1146.4 241.7 1152.2 248.1C1158 254.5 1165.3 257.7 1174.1 257.7ZM1281.38 282V66H1322.48V148.2C1327.68 140.8 1334.08 135.2 1341.68 131.4C1349.48 127.6 1358.08 125.7 1367.48 125.7C1377.28 125.7 1385.98 127.7 1393.58 131.7C1401.38 135.7 1407.38 141.6 1411.58 149.4C1415.98 157 1418.18 166.4 1418.18 177.6V282H1377.08V185.7C1377.08 175.9 1374.68 168.5 1369.88 163.5C1365.28 158.5 1358.88 156 1350.68 156C1345.28 156 1340.38 157.3 1335.98 159.9C1331.78 162.3 1328.48 165.8 1326.08 170.4C1323.68 174.8 1322.48 179.9 1322.48 185.7V282H1281.38ZM1529.66 285C1512.46 285 1498.26 281.9 1487.06 275.7C1475.86 269.5 1467.56 260.7 1462.16 249.3C1456.96 237.9 1454.36 224.5 1454.36 209.1V201.6C1454.36 185.8 1457.46 172.3 1463.66 161.1C1469.86 149.7 1478.66 141 1490.06 135C1501.66 128.8 1515.36 125.7 1531.16 125.7C1545.76 125.7 1558.26 128.5 1568.66 134.1C1579.26 139.5 1587.46 147.2 1593.26 157.2C1599.06 167 1601.96 178.5 1601.96 191.7V212.7H1497.56V219.9C1497.56 232.5 1500.66 242 1506.86 248.4C1513.26 254.8 1521.26 258 1530.86 258C1541.66 258 1549.76 255.4 1555.16 250.2C1560.76 245 1563.56 237 1563.56 226.2H1601.96C1601.96 238.4 1598.96 248.9 1592.96 257.7C1586.96 266.5 1578.56 273.3 1567.76 278.1C1557.16 282.7 1544.46 285 1529.66 285ZM1497.86 189.3H1561.76V185.1C1561.76 178.7 1560.46 173.1 1557.86 168.3C1555.26 163.5 1551.56 159.7 1546.76 156.9C1541.96 153.9 1536.46 152.4 1530.26 152.4C1523.46 152.4 1517.66 154.1 1512.86 157.5C1508.06 160.7 1504.36 165 1501.76 170.4C1499.16 175.6 1497.86 181.1 1497.86 186.9V189.3ZM1667.25 282V159.3H1633.05V128.7H1700.55L1702.65 149.1C1705.85 142.1 1711.05 136.5 1718.25 132.3C1725.45 127.9 1734.15 125.7 1744.35 125.7C1758.75 125.7 1769.85 129.9 1777.65 138.3C1785.45 146.5 1789.35 157.3 1789.35 170.7C1789.35 173.5 1789.25 176.3 1789.05 179.1C1789.05 181.9 1788.85 184.8 1788.45 187.8H1754.25V180.3C1754.25 176.1 1753.35 172.2 1751.55 168.6C1749.75 165 1747.15 162.1 1743.75 159.9C1740.35 157.5 1736.05 156.3 1730.85 156.3C1725.85 156.3 1721.55 157.7 1717.95 160.5C1714.55 163.3 1711.95 166.9 1710.15 171.3C1708.35 175.7 1707.45 180.4 1707.45 185.4V282H1667.25ZM1632.15 282V252H1768.95V282H1632.15ZM1889.43 285C1872.23 285 1858.03 281.9 1846.83 275.7C1835.63 269.5 1827.33 260.7 1821.93 249.3C1816.73 237.9 1814.13 224.5 1814.13 209.1V201.6C1814.13 185.8 1817.23 172.3 1823.43 161.1C1829.63 149.7 1838.43 141 1849.83 135C1861.43 128.8 1875.13 125.7 1890.93 125.7C1905.53 125.7 1918.03 128.5 1928.43 134.1C1939.03 139.5 1947.23 147.2 1953.03 157.2C1958.83 167 1961.73 178.5 1961.73 191.7V212.7H1857.33V219.9C1857.33 232.5 1860.43 242 1866.63 248.4C1873.03 254.8 1881.03 258 1890.63 258C1901.43 258 1909.53 255.4 1914.93 250.2C1920.53 245 1923.33 237 1923.33 226.2H1961.73C1961.73 238.4 1958.73 248.9 1952.73 257.7C1946.73 266.5 1938.33 273.3 1927.53 278.1C1916.93 282.7 1904.23 285 1889.43 285ZM1857.63 189.3H1921.53V185.1C1921.53 178.7 1920.23 173.1 1917.63 168.3C1915.03 163.5 1911.33 159.7 1906.53 156.9C1901.73 153.9 1896.23 152.4 1890.03 152.4C1883.23 152.4 1877.43 154.1 1872.63 157.5C1867.83 160.7 1864.13 165 1861.53 170.4C1858.93 175.6 1857.63 181.1 1857.63 186.9V189.3Z" fill="#00FECC"/>
</g>
<g filter="url(#filter1_d_1172_22)">
<path d="M1499 320.5C1493.8 320.5 1488.8 319.95 1484 318.85C1479.3 317.75 1475.15 316 1471.55 313.6C1467.95 311.1 1465.1 307.9 1463 304C1460.9 300.1 1459.85 295.35 1459.85 289.75C1459.85 289.35 1459.85 288.9 1459.85 288.4C1459.85 287.8 1459.9 287.25 1460 286.75H1474.85C1474.75 287.35 1474.7 287.9 1474.7 288.4C1474.7 288.9 1474.7 289.45 1474.7 290.05C1474.7 294.15 1475.7 297.5 1477.7 300.1C1479.7 302.7 1482.5 304.6 1486.1 305.8C1489.7 307 1493.9 307.6 1498.7 307.6C1503.5 307.6 1507.65 307.1 1511.15 306.1C1514.65 305 1517.35 303.2 1519.25 300.7C1521.25 298.2 1522.25 294.9 1522.25 290.8C1522.25 287.1 1521.15 284.15 1518.95 281.95C1516.75 279.75 1513.85 278 1510.25 276.7C1506.75 275.3 1502.85 274.05 1498.55 272.95C1494.35 271.85 1490.1 270.65 1485.8 269.35C1481.6 268.05 1477.7 266.35 1474.1 264.25C1470.6 262.15 1467.75 259.35 1465.55 255.85C1463.35 252.25 1462.25 247.7 1462.25 242.2C1462.25 235.9 1463.95 230.7 1467.35 226.6C1470.75 222.5 1475.25 219.5 1480.85 217.6C1486.45 215.6 1492.6 214.6 1499.3 214.6C1506 214.6 1512.1 215.6 1517.6 217.6C1523.1 219.5 1527.45 222.55 1530.65 226.75C1533.95 230.85 1535.6 236.3 1535.6 243.1V245.05H1521.05V242.65C1521.05 239.25 1520.1 236.4 1518.2 234.1C1516.4 231.7 1513.85 229.9 1510.55 228.7C1507.35 227.5 1503.6 226.9 1499.3 226.9C1495.3 226.9 1491.7 227.4 1488.5 228.4C1485.3 229.4 1482.75 230.95 1480.85 233.05C1479.05 235.15 1478.15 237.9 1478.15 241.3C1478.15 244.8 1479.2 247.6 1481.3 249.7C1483.5 251.8 1486.35 253.5 1489.85 254.8C1493.45 256 1497.4 257.1 1501.7 258.1C1506 259.1 1510.25 260.25 1514.45 261.55C1518.75 262.85 1522.65 264.55 1526.15 266.65C1529.75 268.75 1532.65 271.6 1534.85 275.2C1537.15 278.7 1538.3 283.2 1538.3 288.7C1538.3 296.4 1536.55 302.6 1533.05 307.3C1529.65 311.9 1524.95 315.25 1518.95 317.35C1513.05 319.45 1506.4 320.5 1499 320.5ZM1556.99 319V216.1H1624.19L1622.09 228.85H1572.74V260.2H1617.44V272.65H1572.74V305.95H1622.99L1625.09 319H1556.99ZM1635.83 319L1669.28 216.1H1688.33L1721.93 319H1705.73L1678.58 231.55H1677.98L1651.43 319H1635.83ZM1652.63 295.9V283.75H1704.53V295.9H1652.63ZM1805.72 319.75C1803.22 319.75 1800.82 319.25 1798.52 318.25C1796.22 317.25 1794.37 315.35 1792.97 312.55C1791.57 309.75 1790.87 305.7 1790.87 300.4C1790.87 295.4 1790.32 291.3 1789.22 288.1C1788.12 284.9 1786.67 282.4 1784.87 280.6C1783.17 278.7 1781.32 277.35 1779.32 276.55C1777.32 275.75 1775.37 275.35 1773.47 275.35H1750.52V319H1734.92V216.1H1779.62C1785.02 216.1 1789.87 217.2 1794.17 219.4C1798.57 221.6 1802.02 224.7 1804.52 228.7C1807.12 232.7 1808.42 237.45 1808.42 242.95C1808.42 249.25 1806.77 254.75 1803.47 259.45C1800.17 264.05 1795.82 266.9 1790.42 268V268.75C1794.02 269.75 1796.97 271.5 1799.27 274C1801.67 276.5 1803.47 279.6 1804.67 283.3C1805.87 286.9 1806.47 290.8 1806.47 295C1806.47 301.8 1807.02 306.55 1808.12 309.25C1809.22 311.95 1811.22 313.7 1814.12 314.5V318.4C1813.12 318.9 1811.87 319.25 1810.37 319.45C1808.97 319.65 1807.42 319.75 1805.72 319.75ZM1750.52 262.75H1775.27C1780.97 262.75 1785.32 261.1 1788.32 257.8C1791.42 254.4 1792.97 250.15 1792.97 245.05C1792.97 239.95 1791.47 235.95 1788.47 233.05C1785.57 230.15 1781.47 228.7 1776.17 228.7H1750.52V262.75ZM1857.87 320.5C1852.37 320.5 1847.27 319.7 1842.57 318.1C1837.97 316.5 1833.92 313.95 1830.42 310.45C1826.92 306.85 1824.17 302.1 1822.17 296.2C1820.27 290.3 1819.32 283.05 1819.32 274.45V260.65C1819.32 252.05 1820.32 244.8 1822.32 238.9C1824.32 233 1827.07 228.3 1830.57 224.8C1834.07 221.2 1838.12 218.6 1842.72 217C1847.42 215.4 1852.42 214.6 1857.72 214.6H1859.82C1867.62 214.6 1874.27 216.1 1879.77 219.1C1885.37 222.1 1889.62 226.65 1892.52 232.75C1895.42 238.75 1896.87 246.3 1896.87 255.4H1881.72C1881.72 248.8 1880.97 243.45 1879.47 239.35C1878.07 235.15 1875.67 232.1 1872.27 230.2C1868.87 228.2 1864.32 227.2 1858.62 227.2C1855.32 227.2 1852.27 227.7 1849.47 228.7C1846.77 229.6 1844.37 231.2 1842.27 233.5C1840.17 235.7 1838.52 238.75 1837.32 242.65C1836.12 246.55 1835.52 251.45 1835.52 257.35V277.6C1835.52 283.5 1836.12 288.45 1837.32 292.45C1838.52 296.35 1840.17 299.45 1842.27 301.75C1844.37 303.95 1846.77 305.55 1849.47 306.55C1852.27 307.45 1855.32 307.9 1858.62 307.9C1867.22 307.9 1873.27 305.7 1876.77 301.3C1880.37 296.8 1882.17 289.65 1882.17 279.85H1896.87C1896.87 288.65 1895.42 296.05 1892.52 302.05C1889.62 308.05 1885.42 312.65 1879.92 315.85C1874.42 318.95 1867.77 320.5 1859.97 320.5H1857.87ZM1914.81 319V216.1H1930.11V259.9H1967.31V216.1H1982.76V319H1967.31V272.95H1930.11V319H1914.81Z" fill="#00FECC"/>
</g>
<g filter="url(#filter2_d_1172_22)">
<path d="M70.1 111.1V41.9H78.2L79.3 49.2C80.7667 46.4667 82.8333 44.4 85.5 43C88.2333 41.6 91.4667 40.9 95.2 40.9C99.0667 40.9 102.5 41.8333 105.5 43.7C108.567 45.5 110.967 48.3 112.7 52.1C114.5 55.9 115.4 60.8333 115.4 66.9V68.2C115.4 73.8 114.467 78.5333 112.6 82.4C110.733 86.2 108.233 89.1 105.1 91.1C102.033 93.0333 98.6 94 94.8 94C91.4 94 88.4333 93.3667 85.9 92.1C83.4333 90.8333 81.5 89.2667 80.1 87.4V111.1H70.1ZM92.8 86.8C96.4667 86.8 99.4667 85.4667 101.8 82.8C104.133 80.1333 105.3 76 105.3 70.4V64.6C105.3 60.5333 104.733 57.3 103.6 54.9C102.467 52.5 100.933 50.7667 99 49.7C97.1333 48.5667 95.0667 48 92.8 48C90.6 48 88.5333 48.5333 86.6 49.6C84.6667 50.6 83.1 52.3333 81.9 54.8C80.7 57.2 80.1 60.4667 80.1 64.6V70.4C80.1 76 81.3 80.1333 83.7 82.8C86.1 85.4667 89.1333 86.8 92.8 86.8ZM150.961 94C146.028 94 141.794 92.9 138.261 90.7C134.728 88.5 132.028 85.4667 130.161 81.6C128.294 77.6667 127.361 73.2333 127.361 68.3V66.6C127.361 61.5333 128.294 57.0667 130.161 53.2C132.028 49.3333 134.728 46.3333 138.261 44.2C141.794 42 145.994 40.9 150.861 40.9C155.861 40.9 160.128 42 163.661 44.2C167.194 46.4 169.894 49.4333 171.761 53.3C173.628 57.1667 174.561 61.6 174.561 66.6V68.3C174.561 73.3667 173.628 77.8333 171.761 81.7C169.894 85.5667 167.194 88.6 163.661 90.8C160.128 92.9333 155.894 94 150.961 94ZM150.961 86.9C154.828 86.9 157.994 85.5 160.461 82.7C162.928 79.8333 164.161 75.8667 164.161 70.8V64.1C164.161 59.0333 162.928 55.1 160.461 52.3C157.994 49.4333 154.828 48 150.961 48C147.161 48 143.994 49.4333 141.461 52.3C138.994 55.1 137.761 59.0333 137.761 64.1V70.8C137.761 75.8667 138.994 79.8333 141.461 82.7C143.994 85.5 147.161 86.9 150.961 86.9ZM192.522 93L180.922 41.9H189.222L198.022 79H198.422L206.722 41.9H216.222L223.922 79H224.322L232.922 41.9H240.922L229.622 93H219.522L211.622 54.8H211.222L202.522 93H192.522ZM270.883 94C265.549 94 261.116 92.9333 257.583 90.8C254.116 88.6667 251.516 85.6667 249.783 81.8C248.116 77.9333 247.283 73.5 247.283 68.5V66.4C247.283 61.2 248.249 56.7 250.183 52.9C252.116 49.1 254.883 46.1667 258.483 44.1C262.083 41.9667 266.349 40.9 271.283 40.9C275.883 40.9 279.816 41.8333 283.083 43.7C286.416 45.5667 288.983 48.1 290.783 51.3C292.649 54.5 293.583 58.1667 293.583 62.3V69.1H257.683V70.8C257.683 76.0667 258.949 80.0667 261.483 82.8C264.016 85.5333 267.216 86.9 271.083 86.9C275.349 86.9 278.583 85.8667 280.783 83.8C283.049 81.7333 284.183 78.5333 284.183 74.2H293.583C293.583 78.2667 292.616 81.8 290.683 84.8C288.816 87.7333 286.183 90 282.783 91.6C279.449 93.2 275.483 94 270.883 94ZM257.783 62.6H283.783V61.1C283.783 58.5667 283.249 56.3333 282.183 54.4C281.183 52.4 279.716 50.8333 277.783 49.7C275.849 48.5667 273.616 48 271.083 48C268.216 48 265.783 48.7 263.783 50.1C261.849 51.5 260.349 53.3 259.283 55.5C258.283 57.6333 257.783 59.8333 257.783 62.1V62.6ZM318.344 93V49.7H305.444V41.9H326.444L326.944 49.4C328.144 46.7333 329.977 44.6667 332.444 43.2C334.977 41.6667 337.877 40.9 341.144 40.9C346.144 40.9 349.977 42.4 352.644 45.4C355.377 48.3333 356.744 52.1 356.744 56.7C356.744 57.4333 356.71 58.1333 356.644 58.8C356.644 59.4 356.577 60.1333 356.444 61H347.944V58.9C347.944 57.1 347.577 55.4333 346.844 53.9C346.177 52.3667 345.11 51.1333 343.644 50.2C342.244 49.2 340.41 48.7 338.144 48.7C335.944 48.7 334.077 49.3333 332.544 50.6C331.077 51.8667 329.977 53.4667 329.244 55.4C328.51 57.3333 328.144 59.3667 328.144 61.5V93H318.344ZM304.944 93V85.3H351.044V93H304.944ZM390.805 94C385.471 94 381.038 92.9333 377.505 90.8C374.038 88.6667 371.438 85.6667 369.705 81.8C368.038 77.9333 367.205 73.5 367.205 68.5V66.4C367.205 61.2 368.171 56.7 370.105 52.9C372.038 49.1 374.805 46.1667 378.405 44.1C382.005 41.9667 386.271 40.9 391.205 40.9C395.805 40.9 399.738 41.8333 403.005 43.7C406.338 45.5667 408.905 48.1 410.705 51.3C412.571 54.5 413.505 58.1667 413.505 62.3V69.1H377.605V70.8C377.605 76.0667 378.871 80.0667 381.405 82.8C383.938 85.5333 387.138 86.9 391.005 86.9C395.271 86.9 398.505 85.8667 400.705 83.8C402.971 81.7333 404.105 78.5333 404.105 74.2H413.505C413.505 78.2667 412.538 81.8 410.605 84.8C408.738 87.7333 406.105 90 402.705 91.6C399.371 93.2 395.405 94 390.805 94ZM377.705 62.6H403.705V61.1C403.705 58.5667 403.171 56.3333 402.105 54.4C401.105 52.4 399.638 50.8333 397.705 49.7C395.771 48.5667 393.538 48 391.005 48C388.138 48 385.705 48.7 383.705 50.1C381.771 51.5 380.271 53.3 379.205 55.5C378.205 57.6333 377.705 59.8333 377.705 62.1V62.6ZM446.666 94C442.999 94 439.632 93.1333 436.566 91.4C433.499 89.6 431.032 86.8333 429.166 83.1C427.366 79.3 426.466 74.3667 426.466 68.3V67.2C426.466 61.5333 427.366 56.7333 429.166 52.8C430.966 48.8667 433.399 45.9 436.466 43.9C439.599 41.9 443.066 40.9 446.866 40.9C450.266 40.9 453.232 41.5333 455.766 42.8C458.299 44 460.266 45.6667 461.666 47.8V21H471.666V93H463.566L462.466 85.7C460.999 88.3667 458.932 90.4333 456.266 91.9C453.599 93.3 450.399 94 446.666 94ZM449.066 86.8C452.732 86.8 455.732 85.4667 458.066 82.8C460.466 80.0667 461.666 75.8667 461.666 70.2V64.6C461.666 59 460.466 54.8333 458.066 52.1C455.732 49.3667 452.732 48 449.066 48C445.399 48 442.366 49.4 439.966 52.2C437.632 54.9333 436.466 59.0667 436.466 64.6V70.1C436.466 75.7667 437.632 79.9667 439.966 82.7C442.366 85.4333 445.399 86.8 449.066 86.8ZM574.488 94C571.088 94 568.021 93.3 565.288 91.9C562.554 90.5 560.388 88.4333 558.788 85.7L557.888 93H549.788V21H559.788V48.1C561.254 45.7667 563.254 44 565.788 42.8C568.388 41.5333 571.388 40.9 574.788 40.9C579.188 40.9 582.888 41.9667 585.888 44.1C588.888 46.2333 591.154 49.2 592.688 53C594.288 56.7333 595.088 61.1 595.088 66.1V67.5C595.088 72.9667 594.221 77.7 592.488 81.7C590.754 85.6333 588.354 88.6667 585.288 90.8C582.221 92.9333 578.621 94 574.488 94ZM572.488 86.8C576.154 86.8 579.154 85.4667 581.488 82.8C583.821 80.0667 584.988 75.7333 584.988 69.8V64C584.988 58.7333 583.821 54.7667 581.488 52.1C579.154 49.3667 576.154 48 572.488 48C568.821 48 565.788 49.3667 563.388 52.1C560.988 54.7667 559.788 58.7333 559.788 64V69.8C559.788 75.7333 560.988 80.0667 563.388 82.8C565.788 85.4667 568.821 86.8 572.488 86.8ZM617.048 111.6C615.648 111.6 614.315 111.467 613.048 111.2C611.848 111 610.682 110.667 609.548 110.2V102.8C610.282 103.133 611.215 103.433 612.348 103.7C613.482 104.033 614.582 104.2 615.648 104.2C617.515 104.2 618.982 103.767 620.048 102.9C621.115 102.1 622.048 100.8 622.848 99C623.715 97.2667 624.715 94.9333 625.848 92L606.048 41.9H616.748L630.948 79.7H631.548L645.448 41.9H655.248L636.048 90.9C634.582 94.7 633.015 98.1667 631.348 101.3C629.748 104.433 627.815 106.933 625.548 108.8C623.282 110.667 620.448 111.6 617.048 111.6ZM749.87 94C745.67 94 741.937 93.4333 738.67 92.3C735.47 91.1 732.937 89.4 731.07 87.2C729.27 84.9333 728.37 82.2667 728.37 79.2C728.37 79 728.37 78.7 728.37 78.3C728.37 77.9 728.404 77.4667 728.47 77H737.07V78C737.07 80.8 738.27 83 740.67 84.6C743.137 86.1333 746.637 86.9 751.17 86.9C755.237 86.9 758.304 86.2 760.37 84.8C762.504 83.3333 763.57 81.4333 763.57 79.1C763.57 77.5667 763.137 76.3 762.27 75.3C761.404 74.3 759.837 73.4333 757.57 72.7C755.37 71.9667 752.17 71.2667 747.97 70.6C743.504 69.8 739.904 68.8333 737.17 67.7C734.437 66.5 732.47 64.9667 731.27 63.1C730.07 61.1667 729.47 58.7667 729.47 55.9C729.47 52.5667 730.37 49.8 732.17 47.6C733.97 45.4 736.47 43.7333 739.67 42.6C742.937 41.4667 746.737 40.9 751.07 40.9C754.87 40.9 758.27 41.4667 761.27 42.6C764.337 43.7333 766.77 45.3333 768.57 47.4C770.37 49.4 771.27 51.8333 771.27 54.7C771.27 54.9 771.27 55.1333 771.27 55.4C771.27 55.6667 771.204 56.0333 771.07 56.5H762.37C762.37 54.1 761.804 52.3 760.67 51.1C759.604 49.8333 758.137 49 756.27 48.6C754.47 48.1333 752.47 47.9 750.27 47.9C742.537 47.9 738.67 50.3 738.67 55.1C738.67 56.3667 739.07 57.4333 739.87 58.3C740.67 59.1 742.104 59.8333 744.17 60.5C746.304 61.1667 749.337 61.8667 753.27 62.6C758.137 63.4667 761.97 64.5333 764.77 65.8C767.637 67.0667 769.704 68.7 770.97 70.7C772.237 72.6333 772.87 75.1667 772.87 78.3C772.87 81.8333 771.937 84.7667 770.07 87.1C768.27 89.4333 765.637 91.1667 762.17 92.3C758.77 93.4333 754.67 94 749.87 94ZM810.531 94C805.198 94 800.765 92.9333 797.231 90.8C793.765 88.6667 791.165 85.6667 789.431 81.8C787.765 77.9333 786.931 73.5 786.931 68.5V66.4C786.931 61.2 787.898 56.7 789.831 52.9C791.765 49.1 794.531 46.1667 798.131 44.1C801.731 41.9667 805.998 40.9 810.931 40.9C815.531 40.9 819.465 41.8333 822.731 43.7C826.065 45.5667 828.631 48.1 830.431 51.3C832.298 54.5 833.231 58.1667 833.231 62.3V69.1H797.331V70.8C797.331 76.0667 798.598 80.0667 801.131 82.8C803.665 85.5333 806.865 86.9 810.731 86.9C814.998 86.9 818.231 85.8667 820.431 83.8C822.698 81.7333 823.831 78.5333 823.831 74.2H833.231C833.231 78.2667 832.265 81.8 830.331 84.8C828.465 87.7333 825.831 90 822.431 91.6C819.098 93.2 815.131 94 810.531 94ZM797.431 62.6H823.431V61.1C823.431 58.5667 822.898 56.3333 821.831 54.4C820.831 52.4 819.365 50.8333 817.431 49.7C815.498 48.5667 813.265 48 810.731 48C807.865 48 805.431 48.7 803.431 50.1C801.498 51.5 799.998 53.3 798.931 55.5C797.931 57.6333 797.431 59.8333 797.431 62.1V62.6ZM863.592 94C858.326 94 854.259 92.7667 851.392 90.3C848.592 87.8333 847.192 84.2 847.192 79.4C847.192 75.4 848.259 72.2 850.392 69.8C852.592 67.3333 856.092 65.5333 860.892 64.4C865.759 63.2667 872.159 62.7 880.092 62.7V57.1C880.092 53.9 879.259 51.5667 877.592 50.1C875.992 48.6333 873.259 47.9 869.392 47.9C865.859 47.9 863.126 48.6333 861.192 50.1C859.259 51.5667 858.292 53.6333 858.292 56.3V57.5H849.092C848.959 56.4333 848.859 55.7333 848.792 55.4C848.792 55.0667 848.792 54.9333 848.792 55C848.792 55.0667 848.792 55.1667 848.792 55.3C848.859 55.4333 848.892 55.4333 848.892 55.3C848.892 50.9 850.759 47.4 854.492 44.8C858.292 42.2 863.359 40.9 869.692 40.9C876.426 40.9 881.492 42.2 884.892 44.8C888.359 47.4 890.092 51.3667 890.092 56.7V83.8C890.092 84.8667 890.359 85.6333 890.892 86.1C891.426 86.5667 892.126 86.8 892.992 86.8C894.526 86.8 895.859 86.4 896.992 85.6V92.1C896.126 92.7 895.059 93.1667 893.792 93.5C892.526 93.8333 891.192 94 889.792 94C887.792 94 886.159 93.7333 884.892 93.2C883.626 92.7333 882.692 91.9 882.092 90.7C881.492 89.5 881.092 87.8333 880.892 85.7C879.759 87.7667 878.292 89.4333 876.492 90.7C874.692 91.9 872.692 92.7333 870.492 93.2C868.292 93.7333 865.992 94 863.592 94ZM866.692 86.9C869.759 86.9 872.259 86.2333 874.192 84.9C876.192 83.5667 877.659 81.7667 878.592 79.5C879.592 77.2333 880.092 74.7 880.092 71.9V68.8C874.359 68.8 869.792 69.1333 866.392 69.8C863.059 70.4 860.659 71.4333 859.192 72.9C857.792 74.3 857.092 76.3 857.092 78.9C857.092 81.5667 857.859 83.5667 859.392 84.9C860.992 86.2333 863.426 86.9 866.692 86.9ZM917.953 93V49.7H905.053V41.9H926.053L926.553 49.4C927.753 46.7333 929.586 44.6667 932.053 43.2C934.586 41.6667 937.486 40.9 940.753 40.9C945.753 40.9 949.586 42.4 952.253 45.4C954.986 48.3333 956.353 52.1 956.353 56.7C956.353 57.4333 956.32 58.1333 956.253 58.8C956.253 59.4 956.186 60.1333 956.053 61H947.553V58.9C947.553 57.1 947.186 55.4333 946.453 53.9C945.786 52.3667 944.72 51.1333 943.253 50.2C941.853 49.2 940.02 48.7 937.753 48.7C935.553 48.7 933.686 49.3333 932.153 50.6C930.686 51.8667 929.586 53.4667 928.853 55.4C928.12 57.3333 927.753 59.3667 927.753 61.5V93H917.953ZM904.553 93V85.3H950.653V93H904.553ZM965.914 93L984.214 66.5L967.014 41.9H978.914L990.814 59.7H991.014L1003.11 41.9H1014.01L996.814 66.7L1015.01 93H1003.21L990.214 73.5H990.014L976.914 93H965.914ZM1028.98 93V41.9H1037.08L1038.08 49.2C1039.61 46.3333 1041.78 44.2333 1044.58 42.9C1047.38 41.5667 1050.48 40.9 1053.88 40.9C1059.48 40.9 1063.94 42.4667 1067.28 45.6C1070.61 48.7333 1072.28 53.3667 1072.28 59.5V93H1062.28V62.4C1062.28 57.6 1061.28 54.1 1059.28 51.9C1057.34 49.7 1054.61 48.6 1051.08 48.6C1048.61 48.6 1046.48 49.2333 1044.68 50.5C1042.88 51.7 1041.48 53.4 1040.48 55.6C1039.48 57.7333 1038.98 60.2 1038.98 63V93H1028.98ZM1098.84 111.8C1094.57 111.8 1091.27 110.633 1088.94 108.3C1086.6 105.967 1085.44 103.1 1085.44 99.7C1085.44 97.1667 1086.14 94.9 1087.54 92.9C1088.94 90.9 1090.74 89.4333 1092.94 88.5C1091.47 87.5667 1090.3 86.3333 1089.44 84.8C1088.64 83.2667 1088.24 81.6333 1088.24 79.9C1088.24 77.5667 1089 75.4667 1090.54 73.6C1092.07 71.7333 1094.17 70.5333 1096.84 70C1094.44 68.6 1092.64 66.8 1091.44 64.6C1090.24 62.4 1089.64 59.8667 1089.64 57C1089.64 52 1091.4 48.0667 1094.94 45.2C1098.54 42.3333 1103.84 40.9 1110.84 40.9C1114.97 40.9 1118.3 41.4667 1120.84 42.6C1123.5 41.8667 1125.5 40.6333 1126.84 38.9C1128.24 37.1 1129.04 35.0333 1129.24 32.7H1137.34C1137.34 36.0333 1136.37 38.8667 1134.44 41.2C1132.57 43.4667 1130.1 44.9333 1127.04 45.6V45.8C1128.64 47.0667 1129.84 48.7 1130.64 50.7C1131.5 52.6333 1131.94 54.7333 1131.94 57C1131.94 61.9333 1130.24 65.8667 1126.84 68.8C1123.5 71.7333 1118.67 73.2 1112.34 73.2H1104.14C1102.14 73.2 1100.54 73.6667 1099.34 74.6C1098.2 75.5333 1097.64 76.8333 1097.64 78.5C1097.64 80.1667 1098.2 81.4667 1099.34 82.4C1100.47 83.2667 1102.04 83.7 1104.04 83.7H1122.14C1126.87 83.7 1130.57 84.9333 1133.24 87.4C1135.97 89.8 1137.34 93 1137.34 97C1137.34 101.333 1135.97 104.867 1133.24 107.6C1130.57 110.4 1126.77 111.8 1121.84 111.8H1098.84ZM1101.64 105.2H1120.54C1123 105.2 1124.87 104.533 1126.14 103.2C1127.4 101.933 1128.04 100.333 1128.04 98.4C1128.04 96.5333 1127.4 94.9667 1126.14 93.7C1124.94 92.4333 1123.07 91.8 1120.54 91.8H1101.64C1099.24 91.8 1097.4 92.4333 1096.14 93.7C1094.87 95.0333 1094.24 96.6333 1094.24 98.5C1094.24 100.3 1094.87 101.867 1096.14 103.2C1097.4 104.533 1099.24 105.2 1101.64 105.2ZM1110.94 66.8C1114.6 66.8 1117.47 65.9667 1119.54 64.3C1121.6 62.5667 1122.64 60.1667 1122.64 57.1C1122.64 53.9667 1121.6 51.5667 1119.54 49.9C1117.47 48.2333 1114.6 47.4 1110.94 47.4C1107.34 47.4 1104.47 48.2333 1102.34 49.9C1100.27 51.5667 1099.24 53.9667 1099.24 57.1C1099.24 60.1667 1100.27 62.5667 1102.34 64.3C1104.47 65.9667 1107.34 66.8 1110.94 66.8Z" fill="#00FECC"/>
</g>
<defs>
<filter id="filter0_d_1172_22" x="19.5" y="46" width="1962.23" height="291.8" filterUnits="userSpaceOnUse" color-interpolation-filters="sRGB">
<feFlood flood-opacity="0" result="BackgroundImageFix"/>
<feColorMatrix in="SourceAlpha" type="matrix" values="0 0 0 0 0 0 0 0 0 0 0 0 0 0 0 0 0 0 127 0" result="hardAlpha"/>
<feOffset dx="10" dy="-10"/>
<feGaussianBlur stdDeviation="5"/>
<feComposite in2="hardAlpha" operator="out"/>
<feColorMatrix type="matrix" values="0 0 0 0 0.513726 0 0 0 0 0 0 0 0 0 0.513726 0 0 0 1 0"/>
<feBlend mode="normal" in2="BackgroundImageFix" result="effect1_dropShadow_1172_22"/>
<feBlend mode="normal" in="SourceGraphic" in2="effect1_dropShadow_1172_22" result="shape"/>
</filter>
<filter id="filter1_d_1172_22" x="1459.85" y="194.6" width="542.907" height="125.9" filterUnits="userSpaceOnUse" color-interpolation-filters="sRGB">
<feFlood flood-opacity="0" result="BackgroundImageFix"/>
<feColorMatrix in="SourceAlpha" type="matrix" values="0 0 0 0 0 0 0 0 0 0 0 0 0 0 0 0 0 0 127 0" result="hardAlpha"/>
<feOffset dx="10" dy="-10"/>
<feGaussianBlur stdDeviation="5"/>
<feComposite in2="hardAlpha" operator="out"/>
<feColorMatrix type="matrix" values="0 0 0 0 0.513726 0 0 0 0 0 0 0 0 0 0.513726 0 0 0 1 0"/>
<feBlend mode="normal" in2="BackgroundImageFix" result="effect1_dropShadow_1172_22"/>
<feBlend mode="normal" in="SourceGraphic" in2="effect1_dropShadow_1172_22" result="shape"/>
</filter>
<filter id="filter2_d_1172_22" x="70.0996" y="1" width="1087.24" height="110.8" filterUnits="userSpaceOnUse" color-interpolation-filters="sRGB">
<feFlood flood-opacity="0" result="BackgroundImageFix"/>
<feColorMatrix in="SourceAlpha" type="matrix" values="0 0 0 0 0 0 0 0 0 0 0 0 0 0 0 0 0 0 127 0" result="hardAlpha"/>
<feOffset dx="10" dy="-10"/>
<feGaussianBlur stdDeviation="5"/>
<feComposite in2="hardAlpha" operator="out"/>
<feColorMatrix type="matrix" values="0 0 0 0 0.513726 0 0 0 0 0 0 0 0 0 0.513726 0 0 0 1 0"/>
<feBlend mode="normal" in2="BackgroundImageFix" result="effect1_dropShadow_1172_22"/>
<feBlend mode="normal" in="SourceGraphic" in2="effect1_dropShadow_1172_22" result="shape"/>
</filter>
</defs>
</svg>
